<?xml version="1.0" encoding="UTF-8" standalone="no"?>
<!DOCTYPE svg PUBLIC "-//W3C//DTD SVG 1.1//EN" "http://www.w3.org/Graphics/SVG/1.1/DTD/svg11.dtd">
<!-- Created with Vectornator (http://vectornator.io/) -->
<svg height="100%" stroke-miterlimit="10" style="fill-rule:nonzero;clip-rule:evenodd;stroke-linecap:round;stroke-linejoin:round;" version="1.1" viewBox="982.374 628.241 489.268 448.77" width="100%" xml:space="preserve" xmlns="http://www.w3.org/2000/svg" xmlns:vectornator="http://vectornator.io" xmlns:xlink="http://www.w3.org/1999/xlink">
<defs/>
<clipPath id="ArtboardFrame">
<rect height="448.77" width="489.268" x="982.374" y="628.241"/>
</clipPath>
<g clip-path="url(#ArtboardFrame)" id="Layer" vectornator:layerName="Layer">
<g opacity="1" vectornator:layerName="Group 1">
<g opacity="1" vectornator:layerName="Group 1">
<path d="M1133.6 1058.22C1138.23 1063.09 1143.11 1067.72 1148.23 1072.07L1368.87 1072.07C1393.2 1048.94 1416.23 1015.74 1436.41 969.851C1436.41 969.851 1472.15 879.361 1463.83 800.041C1455.51 720.721 1403.41 658.041 1329.61 644.691C1255.81 631.341 1190.21 704.551 1107.84 729.931C1025.47 755.311 965.142 823.331 986.822 914.571C1008.5 1005.81 1069.04 990.111 1133.6 1058.22Z" fill="#263238" fill-rule="nonzero" opacity="1" stroke="none" vectornator:layerName="path"/>
</g>
<path d="M1221.82 747.044C1218.4 743.619 1218.4 738.066 1221.82 734.642C1225.25 731.217 1230.8 731.217 1234.23 734.642C1237.65 738.066 1237.65 743.619 1234.23 747.044C1230.8 750.469 1225.25 750.469 1221.82 747.044Z" fill="#ffffff" fill-rule="nonzero" opacity="1" stroke="#263238" stroke-linecap="round" stroke-linejoin="round" stroke-width="1" vectornator:layerName="circle"/>
<path d="M1228.27 670.011L1228.27 629.041" fill="none" opacity="1" stroke="#263238" stroke-linecap="round" stroke-linejoin="round" stroke-width="1.6" vectornator:layerName="line"/>
<path d="M1228.27 697.071L1228.27 670.011" fill="none" opacity="1" stroke="#808080" stroke-linecap="butt" stroke-linejoin="miter" stroke-width="1.6" vectornator:layerName="line"/>
<path d="M1214.68 697.071L1187.61 743.971L1268.37 743.971L1241.29 697.071L1214.68 697.071Z" fill="#ffc100" fill-rule="nonzero" opacity="1" stroke="#263238" stroke-linecap="butt" stroke-linejoin="miter" stroke-width="0.778186" vectornator:layerName="polygon"/>
<path d="M1217.4 697.071L1195.85 743.971L1260.13 743.971L1238.58 697.071L1217.4 697.071Z" fill="#263238" fill-rule="nonzero" opacity="1" stroke="#263238" stroke-linecap="round" stroke-linejoin="round" stroke-width="1" vectornator:layerName="polygon"/>
<path d="M1040.4 800.641L1415.4 800.641C1421.18 800.641 1425.86 805.324 1425.86 811.101L1425.86 1057.6L1425.86 1057.6L1029.95 1057.6L1029.95 1057.6L1029.95 811.091C1029.96 805.322 1034.63 800.647 1040.4 800.641Z" fill="#ffffff" fill-rule="nonzero" opacity="1" stroke="#263238" stroke-linecap="round" stroke-linejoin="round" stroke-width="1" vectornator:layerName="path"/>
<text fill="#263238" font-family="__Secular_One_224533" font-size="16" opacity="1" stroke="none" text-anchor="start" transform="matrix(1 0 0 1 1129.19 929.121)" vectornator:layerName="Text 1" vectornator:width="204.184" x="0" y="0">
<tspan textLength="201.184" x="0" y="15">UNDER CONSTRUCTION</tspan>
</text>
<text fill="#263238" font-family="__Secular_One_224533" font-size="12" opacity="1" stroke="none" text-anchor="start" transform="matrix(1 0 0 1 1159.78 963.461)" vectornator:layerName="Text 3" vectornator:width="139.38" x="0" y="0">
<tspan textLength="136.38" x="10" y="12">for a better tomorrow</tspan>
</text>
<path d="M1046.01 820.711L1409.77 820.711L1409.77 820.711L1409.77 1026.28L1409.77 1026.28L1046.01 1026.28L1046.01 1026.28L1046.01 820.711L1046.01 820.711Z" fill="none" opacity="1" stroke="#263238" stroke-linecap="round" stroke-linejoin="round" stroke-width="1" vectornator:layerName="rect"/>
<path d="M1092.76 1045.23L1364.83 1045.23L1364.83 1045.23L1364.83 1058.63L1364.83 1058.63L1092.76 1058.63L1092.76 1058.63L1092.76 1045.23L1092.76 1045.23Z" fill="#263238" fill-rule="nonzero" opacity="1" stroke="#263238" stroke-linecap="round" stroke-linejoin="round" stroke-width="1" vectornator:layerName="rect"/>
<path d="M1092.76 1051.68L1364.83 1051.68L1364.83 1051.68L1364.83 1058.63L1364.83 1058.63L1092.76 1058.63L1092.76 1058.63L1092.76 1051.68L1092.76 1051.68Z" fill="#ffffff" fill-rule="nonzero" opacity="1" stroke="#263238" stroke-linecap="round" stroke-linejoin="round" stroke-width="1" vectornator:layerName="rect"/>
<path d="M997.932 1066.57C997.932 1066.57 1002.4 1072.04 1015.81 1076.5L1441.81 1076.5C1441.81 1076.5 1451.74 1074.02 1456.21 1067.07L997.932 1066.57Z" fill="#263238" fill-rule="nonzero" opacity="1" stroke="#263238" stroke-linecap="round" stroke-linejoin="round" stroke-width="1" vectornator:layerName="path"/>
<path d="M998.922 1056.79L1455.25 1056.79C1456.3 1056.79 1457.14 1057.64 1457.14 1058.68L1457.14 1065.34C1457.14 1066.39 1456.3 1067.23 1455.25 1067.23L998.922 1067.23C997.878 1067.23 997.032 1066.39 997.032 1065.34L997.032 1058.68C997.032 1057.64 997.878 1056.79 998.922 1056.79Z" fill="#ffffff" fill-rule="nonzero" opacity="1" stroke="#263238" stroke-linecap="round" stroke-linejoin="round" stroke-width="1" vectornator:layerName="rect"/>
<path d="M1231.28 808.411C1231.29 806.488 1229.73 804.925 1227.81 804.921C1225.89 804.918 1224.32 806.475 1224.32 808.398C1224.32 810.321 1225.88 811.881 1227.8 811.881C1229.72 811.881 1231.28 810.329 1231.28 808.411Z" fill="#ffffff" fill-rule="nonzero" opacity="1" stroke="#263238" stroke-linecap="round" stroke-linejoin="round" stroke-width="1" vectornator:layerName="path"/>
<path d="M984.142 1076.5L1471.14 1076.5" fill="none" opacity="1" stroke="#263238" stroke-linecap="round" stroke-linejoin="round" stroke-width="1" vectornator:layerName="line"/>
<path d="M1073.38 965.921L1046.06 1070.29L1106.99 1070.29L1079.67 965.921C1079.33 964.461 1078.03 963.427 1076.53 963.427C1075.03 963.427 1073.72 964.461 1073.38 965.921Z" fill="#ffc100" fill-rule="nonzero" opacity="1" stroke="#263238" stroke-linecap="round" stroke-linejoin="round" stroke-width="1" vectornator:layerName="path"/>
<path d="M1046.06 1070.29L1095.7 1070.29L1070.88 975.461L1046.06 1070.29Z" fill="#263238" fill-rule="nonzero" opacity="1" stroke="#263238" stroke-linecap="round" stroke-linejoin="round" stroke-width="1" vectornator:layerName="polygon"/>
<path d="M1037.14 1068L1113.14 1068C1115.35 1068 1117.14 1069.79 1117.14 1072L1117.14 1072.51C1117.14 1074.72 1115.35 1076.51 1113.14 1076.51L1037.14 1076.51C1034.93 1076.51 1033.14 1074.72 1033.14 1072.51L1033.14 1072C1033.14 1069.79 1034.93 1068 1037.14 1068Z" fill="#ffc100" fill-rule="nonzero" opacity="1" stroke="#263238" stroke-linecap="round" stroke-linejoin="round" stroke-width="1" vectornator:layerName="rect"/>
<path d="M1037.14 1068L1087.13 1068C1089.34 1068 1091.13 1069.79 1091.13 1072L1091.13 1072.51C1091.13 1074.72 1089.34 1076.51 1087.13 1076.51L1037.14 1076.51C1034.93 1076.51 1033.14 1074.72 1033.14 1072.51L1033.14 1072C1033.14 1069.79 1034.93 1068 1037.14 1068Z" fill="#263238" fill-rule="nonzero" opacity="1" stroke="#263238" stroke-linecap="round" stroke-linejoin="round" stroke-width="1" vectornator:layerName="rect"/>
<path d="M1056.96 1028.66L1096.09 1028.66L1091.36 1010.58L1061.69 1010.58L1056.96 1028.66Z" fill="#ffffff" fill-rule="nonzero" opacity="1" stroke="#263238" stroke-linecap="round" stroke-linejoin="round" stroke-width="1" vectornator:layerName="polygon"/>
<path d="M1056.96 1028.66L1084.81 1028.66L1080.08 1010.58L1061.69 1010.58L1056.96 1028.66Z" fill="#bababa" fill-rule="nonzero" opacity="1" stroke="#263238" stroke-linecap="round" stroke-linejoin="round" stroke-width="1" vectornator:layerName="polygon"/>
<path d="M1341.37 771.521C1344.58 772.921 1352.43 772.741 1352.43 772.741C1352.43 772.741 1350.74 767.601 1350.6 767.291C1348.87 763.691 1343.43 757.741 1338.99 758.291C1337.51 758.535 1336.2 759.396 1335.39 760.661C1334.58 761.926 1334.35 763.475 1334.75 764.921C1335.48 768.041 1338.63 770.321 1341.37 771.521Z" fill="#c2c2c2" fill-rule="nonzero" opacity="1" stroke="none" vectornator:layerName="path"/>
<path d="M1420.77 773.241C1420.83 773.291 1422.19 768.031 1422.24 767.691C1422.79 763.691 1421.53 755.761 1417.5 753.821C1416.13 753.205 1414.56 753.201 1413.19 753.81C1411.82 754.418 1410.77 755.582 1410.3 757.011C1409.22 760.011 1410.59 763.611 1412.21 766.121C1414.14 769.061 1420.76 773.241 1420.77 773.241Z" fill="#c2c2c2" fill-rule="nonzero" opacity="1" stroke="none" vectornator:layerName="path"/>
<path d="M1444.2 744.801C1439.75 744.321 1434.47 750.411 1432.84 754.061C1432.7 754.381 1431.07 759.561 1431.15 759.561L1431.25 759.561C1430.41 760.561 1429.52 761.561 1428.56 762.701C1426.83 764.831 1424.88 767.261 1422.94 770.051C1420.82 773.031 1418.87 776.133 1417.11 779.341C1415.11 782.925 1413.44 786.68 1412.11 790.561C1412.11 790.608 1412.11 790.655 1412.11 790.701C1412.11 789.391 1412.11 785.701 1412.04 785.441C1411.52 781.441 1408.2 774.131 1403.8 773.321C1402.31 773.086 1400.8 773.498 1399.63 774.453C1398.46 775.408 1397.76 776.816 1397.7 778.321C1397.44 781.471 1399.7 784.621 1401.95 786.611C1404.46 788.851 1411.42 791.021 1411.95 791.191C1410.7 795.172 1409.72 799.231 1409 803.341C1408.58 805.731 1408.22 808.151 1407.9 810.591C1407.9 809.461 1407.9 808.441 1407.84 808.301C1407.32 804.301 1404 796.991 1399.61 796.181C1398.12 795.946 1396.6 796.358 1395.44 797.313C1394.27 798.268 1393.57 799.675 1393.5 801.181C1393.24 804.331 1395.5 807.481 1397.75 809.471C1400 811.461 1405.91 813.471 1407.48 813.951L1407.12 816.761C1406.59 821.241 1406.07 825.761 1405.43 830.111C1405.21 831.651 1404.93 833.161 1404.66 834.671C1404.66 833.671 1404.66 832.821 1404.6 832.671C1404.09 828.671 1400.77 821.361 1396.37 820.551C1394.88 820.316 1393.37 820.728 1392.2 821.683C1391.03 822.638 1390.33 824.046 1390.27 825.551C1390.01 828.691 1392.27 831.841 1394.52 833.831C1396.77 835.821 1402.1 837.621 1403.96 838.221C1403.63 839.761 1403.31 841.311 1402.96 842.791C1402.68 843.791 1402.47 844.791 1402.13 845.791C1401.79 846.791 1401.49 847.791 1401.18 848.731C1400.51 850.581 1399.83 852.491 1399.12 854.271C1398.65 855.521 1398.17 856.691 1397.69 857.881C1397.93 856.351 1398.34 853.341 1398.35 853.081C1398.3 849.567 1397.35 846.123 1395.59 843.081C1395.6 842.69 1395.58 842.298 1395.52 841.911C1395.33 840.42 1394.52 839.079 1393.29 838.223C1392.05 837.366 1390.51 837.075 1389.05 837.421C1384.73 838.571 1381.98 846.161 1381.78 850.151C1381.78 850.381 1381.92 852.951 1382.05 854.571C1381.83 853.631 1381.63 852.711 1381.39 851.751C1380.94 849.841 1380.39 847.941 1379.89 845.901L1379 842.901C1378.72 841.901 1378.3 840.901 1377.95 839.901C1377.1 837.571 1376.12 835.241 1375.08 832.901C1376.75 832.501 1382.67 830.991 1385.08 829.161C1387.49 827.331 1389.95 824.381 1389.93 821.221C1389.97 819.72 1389.37 818.272 1388.29 817.238C1387.2 816.204 1385.72 815.682 1384.22 815.801C1379.77 816.281 1375.91 823.371 1375.1 827.281C1375.1 827.521 1374.79 830.391 1374.68 831.971C1374.04 830.581 1373.41 829.191 1372.68 827.801C1370.68 823.801 1368.55 819.801 1366.44 815.801C1365.79 814.581 1365.16 813.361 1364.52 812.131C1365.12 812.001 1372.2 810.361 1374.86 808.311C1377.22 806.501 1379.73 803.531 1379.71 800.371C1379.75 798.87 1379.15 797.422 1378.07 796.388C1376.98 795.354 1375.5 794.832 1374 794.951C1369.55 795.431 1365.69 802.521 1364.88 806.431C1364.82 806.721 1364.45 810.861 1364.41 811.911C1363.01 809.221 1361.64 806.521 1360.41 803.801C1358.71 800.144 1357.26 796.379 1356.05 792.531C1356.33 792.461 1363.72 790.781 1366.45 788.691C1368.81 786.881 1371.32 783.911 1371.3 780.751C1371.34 779.248 1370.74 777.798 1369.65 776.764C1368.56 775.729 1367.08 775.209 1365.58 775.331C1361.14 775.811 1357.28 782.901 1356.47 786.811C1356.42 787.061 1356.13 790.211 1356.03 791.711L1355.78 791.711C1354.67 787.808 1353.9 783.812 1353.5 779.771C1353.25 777.551 1353.14 775.411 1353.07 773.331C1354.48 773.161 1360.91 772.331 1363.57 770.691C1366.23 769.051 1368.95 766.471 1369.27 763.331C1369.47 761.844 1369.03 760.341 1368.06 759.197C1367.09 758.053 1365.68 757.374 1364.18 757.331C1359.71 757.331 1355.1 763.941 1353.87 767.741C1353.8 767.951 1353.35 770.121 1353.05 771.741C1353.05 770.801 1353 769.831 1353 768.931C1353 765.551 1353.22 762.451 1353.44 759.711C1353.57 758.151 1353.72 756.711 1353.88 755.431C1355.17 754.541 1360.34 750.891 1361.93 748.281C1363.52 745.671 1364.76 742.061 1363.6 739.121C1363.1 737.705 1362.02 736.569 1360.63 735.997C1359.23 735.424 1357.67 735.47 1356.31 736.121C1352.31 738.121 1351.31 746.121 1351.95 750.121C1352.01 750.461 1353.51 755.681 1353.58 755.641L1353.65 755.581C1353.48 756.851 1353.31 758.201 1353.15 759.681C1352.88 762.421 1352.59 765.521 1352.51 768.921C1352.39 772.59 1352.48 776.263 1352.78 779.921C1353.08 784.007 1353.75 788.056 1354.78 792.021C1354.78 792.021 1354.78 792.111 1354.78 792.161C1354.08 791.051 1352.01 788.031 1351.78 787.811C1349.17 784.811 1342.35 780.491 1338.23 782.241C1336.86 782.865 1335.83 784.042 1335.38 785.477C1334.93 786.912 1335.11 788.47 1335.88 789.761C1337.4 792.531 1341.05 793.891 1344 794.331C1347.33 794.811 1354.33 792.781 1354.89 792.611C1356.04 796.623 1357.46 800.552 1359.14 804.371C1360.14 806.601 1361.14 808.821 1362.21 811.031C1361.57 810.091 1360.99 809.261 1360.9 809.151C1358.29 806.151 1351.46 801.831 1347.35 803.581C1345.98 804.205 1344.95 805.382 1344.5 806.817C1344.05 808.252 1344.23 809.81 1345 811.101C1346.52 813.871 1350.16 815.241 1353.11 815.671C1356.06 816.101 1362.11 814.491 1363.7 814.041C1364.12 814.891 1364.53 815.731 1364.95 816.571C1366.95 820.571 1369.02 824.641 1370.95 828.641C1371.61 830.051 1372.21 831.471 1372.82 832.881C1372.25 832.051 1371.76 831.351 1371.68 831.261C1369.07 828.261 1362.24 823.941 1358.13 825.691C1356.76 826.313 1355.73 827.488 1355.28 828.921C1354.83 830.355 1355.01 831.911 1355.78 833.201C1357.3 835.971 1360.94 837.341 1363.89 837.771C1366.84 838.201 1372.31 836.771 1374.2 836.221C1374.77 837.691 1375.36 839.161 1375.85 840.601C1376.17 841.601 1376.54 842.541 1376.8 843.551C1377.06 844.561 1377.35 845.551 1377.63 846.551C1378.09 848.461 1378.57 850.431 1378.97 852.301C1379.26 853.611 1379.51 854.851 1379.77 856.111C1379.12 854.691 1377.77 851.951 1377.67 851.741C1375.54 848.361 1369.45 843.071 1365.11 844.181C1363.67 844.591 1362.47 845.596 1361.81 846.946C1361.15 848.295 1361.1 849.861 1361.66 851.251C1362.74 854.251 1366.13 856.121 1368.98 857.001C1372.13 858.001 1379.08 857.081 1379.98 857.001C1380.39 859.081 1380.78 861.111 1381.11 863.001C1381.69 866.261 1382.11 869.261 1382.53 871.931L1385.42 871.931C1384.96 869.131 1384.42 865.931 1383.72 862.511C1383.3 860.401 1382.82 858.161 1382.3 855.851C1384.39 855.01 1386.43 854.052 1388.41 852.981C1390.7 855.461 1396.57 858.361 1397.33 858.731C1396.53 860.731 1395.73 862.591 1394.95 864.371C1393.75 867.131 1392.6 869.661 1391.53 871.931L1394.62 871.931C1395.51 869.931 1396.44 867.751 1397.39 865.401C1398.21 863.401 1399.05 861.271 1399.89 859.061C1400.73 859.241 1407.61 860.641 1410.82 859.911C1413.73 859.251 1417.25 857.611 1418.55 854.731C1419.22 853.386 1419.28 851.819 1418.73 850.423C1418.17 849.028 1417.04 847.936 1415.63 847.421C1411.39 845.991 1404.92 850.811 1402.55 854.021C1402.41 854.211 1401.12 856.441 1400.33 857.861C1400.67 856.951 1401.01 856.081 1401.33 855.141C1402.01 853.301 1402.63 851.441 1403.33 849.441C1403.62 848.441 1403.92 847.441 1404.21 846.441C1404.5 845.441 1404.74 844.381 1405.01 843.341C1405.59 840.921 1406.01 838.441 1406.47 835.931C1408.08 836.521 1413.85 838.531 1416.84 838.321C1419.83 838.111 1423.55 837.011 1425.27 834.321C1426.14 833.091 1426.44 831.549 1426.1 830.083C1425.76 828.618 1424.81 827.366 1423.49 826.641C1419.49 824.641 1412.39 828.371 1409.56 831.191C1409.39 831.371 1407.56 833.621 1406.62 834.871C1406.85 833.361 1407.1 831.871 1407.29 830.321C1407.84 825.881 1408.29 821.381 1408.7 816.891C1408.83 815.511 1408.98 814.141 1409.12 812.771C1409.7 812.981 1416.5 815.521 1419.85 815.281C1422.85 815.071 1426.56 813.981 1428.28 811.281C1429.15 810.052 1429.45 808.512 1429.11 807.048C1428.77 805.584 1427.82 804.334 1426.5 803.611C1422.5 801.561 1415.4 805.341 1412.57 808.161C1412.36 808.371 1409.77 811.611 1409.15 812.471C1409.47 809.471 1409.81 806.471 1410.28 803.471C1410.88 799.483 1411.74 795.538 1412.85 791.661C1413.12 791.761 1420.21 794.441 1423.64 794.191C1426.64 793.991 1430.35 792.891 1432.07 790.251C1432.94 789.021 1433.24 787.479 1432.9 786.013C1432.56 784.548 1431.61 783.296 1430.29 782.571C1426.29 780.571 1419.19 784.301 1416.36 787.121C1416.18 787.301 1414.2 789.771 1413.29 790.971L1413.06 790.851C1414.29 786.98 1415.86 783.226 1417.75 779.631C1418.75 777.631 1419.85 775.801 1420.95 774.031C1422.22 774.661 1428.05 777.491 1431.16 777.621C1434.27 777.751 1437.97 777.061 1439.97 774.621C1440.96 773.494 1441.43 771.998 1441.26 770.506C1441.08 769.014 1440.28 767.667 1439.05 766.801C1435.32 764.331 1427.83 767.301 1424.7 769.801C1424.53 769.931 1422.96 771.501 1421.83 772.661C1422.34 771.871 1422.83 771.041 1423.34 770.291C1425.21 767.471 1427.1 765.011 1428.79 762.841C1429.79 761.611 1430.66 760.521 1431.52 759.511C1433.09 759.511 1439.41 759.291 1442.18 758.001C1444.95 756.711 1447.97 754.361 1448.62 751.271C1448.97 749.82 1448.69 748.29 1447.84 747.057C1447 745.825 1445.68 745.006 1444.2 744.801Z" fill="#c2c2c2" fill-rule="nonzero" opacity="1" stroke="none" vectornator:layerName="path"/>
<path d="M997.402 844.061C1000.61 845.461 1008.46 845.281 1008.46 845.281C1008.46 845.281 1006.77 840.151 1006.63 839.831C1004.9 836.231 999.462 830.281 995.022 830.881C993.54 831.125 992.232 831.986 991.424 833.251C990.615 834.516 990.381 836.065 990.782 837.511C991.512 840.581 994.662 842.861 997.402 844.061Z" fill="#c2c2c2" fill-rule="nonzero" opacity="1" stroke="none" vectornator:layerName="path"/>
<path d="M1076.8 845.791C1076.86 845.791 1078.22 840.571 1078.27 840.231C1078.82 836.231 1077.56 828.311 1073.53 826.361C1072.16 825.745 1070.59 825.741 1069.22 826.35C1067.85 826.958 1066.8 828.122 1066.33 829.551C1065.25 832.551 1066.62 836.161 1068.24 838.661C1070.14 841.601 1076.79 845.781 1076.8 845.791Z" fill="#c2c2c2" fill-rule="nonzero" opacity="1" stroke="none" vectornator:layerName="path"/>
<path d="M1100.23 817.341C1095.78 816.861 1090.5 822.951 1088.87 826.601C1088.73 826.921 1087.1 832.101 1087.18 832.101L1087.28 832.101C1086.44 833.051 1085.55 834.101 1084.59 835.241C1082.86 837.381 1080.91 839.811 1078.97 842.591C1076.85 845.573 1074.9 848.675 1073.14 851.881C1071.14 855.465 1069.47 859.22 1068.14 863.101C1068.14 863.148 1068.14 863.195 1068.14 863.241C1068.14 861.931 1068.14 858.241 1068.07 857.981C1067.55 853.981 1064.23 846.671 1059.83 845.861C1058.34 845.629 1056.83 846.042 1055.66 846.997C1054.5 847.951 1053.8 849.357 1053.73 850.861C1053.47 854.001 1055.73 857.151 1057.98 859.141C1060.49 861.381 1067.45 863.551 1067.98 863.721C1066.73 867.702 1065.75 871.761 1065.03 875.871C1064.61 878.261 1064.25 880.691 1063.93 883.121C1063.93 881.991 1063.93 880.971 1063.87 880.831C1063.35 876.831 1060.03 869.521 1055.64 868.711C1054.15 868.48 1052.64 868.892 1051.47 869.847C1050.3 870.801 1049.6 872.206 1049.53 873.711C1049.27 876.851 1051.53 880.001 1053.78 881.991C1056.03 883.981 1061.94 885.991 1063.51 886.481L1063.15 889.281C1062.62 893.771 1062.15 898.281 1061.46 902.631C1061.24 904.171 1060.96 905.681 1060.69 907.201C1060.69 906.201 1060.69 905.341 1060.63 905.201C1060.12 901.201 1056.8 893.891 1052.4 893.081C1050.91 892.849 1049.4 893.262 1048.23 894.217C1047.07 895.171 1046.37 896.577 1046.3 898.081C1046.04 901.221 1048.3 904.371 1050.55 906.361C1052.8 908.351 1058.13 910.151 1059.99 910.751C1059.66 912.301 1059.34 913.841 1058.99 915.321C1058.71 916.321 1058.5 917.321 1058.16 918.321C1057.82 919.321 1057.52 920.321 1057.21 921.261C1056.54 923.111 1055.86 925.021 1055.15 926.801C1054.68 928.051 1054.15 929.231 1053.72 930.411C1053.96 928.881 1054.37 925.871 1054.38 925.611C1054.33 922.097 1053.38 918.653 1051.62 915.611C1051.63 915.217 1051.61 914.822 1051.55 914.431C1051.36 912.942 1050.55 911.603 1049.32 910.747C1048.08 909.89 1046.54 909.598 1045.08 909.941C1040.76 911.101 1038.01 918.681 1037.81 922.671C1037.81 922.901 1037.95 925.471 1038.08 927.091C1037.86 926.151 1037.66 925.231 1037.42 924.271C1036.97 922.361 1036.42 920.461 1035.92 918.421L1035.03 915.471C1034.75 914.471 1034.33 913.471 1034.03 912.471C1033.18 910.141 1032.2 907.811 1031.16 905.471C1032.83 905.071 1038.75 903.561 1041.16 901.731C1043.57 899.901 1046.03 896.951 1046.01 893.791C1046.05 892.29 1045.45 890.842 1044.37 889.808C1043.28 888.774 1041.8 888.252 1040.3 888.371C1035.85 888.861 1031.99 895.941 1031.18 899.851C1031.18 900.091 1030.87 902.961 1030.76 904.551C1030.12 903.151 1029.49 901.761 1028.81 900.381C1026.81 896.381 1024.68 892.381 1022.57 888.381C1021.92 887.151 1021.29 885.931 1020.65 884.711C1021.25 884.571 1028.33 882.931 1030.99 880.891C1033.35 879.071 1035.86 876.101 1035.84 872.941C1035.88 871.44 1035.28 869.992 1034.2 868.958C1033.11 867.924 1031.63 867.402 1030.13 867.521C1025.68 868.011 1021.82 875.091 1021.01 879.001C1020.95 879.301 1020.58 883.431 1020.54 884.481C1019.14 881.791 1017.77 879.091 1016.54 876.371C1014.84 872.714 1013.39 868.949 1012.18 865.101C1012.46 865.041 1019.85 863.361 1022.58 861.261C1024.94 859.451 1027.45 856.481 1027.43 853.321C1027.47 851.818 1026.87 850.368 1025.78 849.334C1024.69 848.299 1023.21 847.779 1021.71 847.901C1017.27 848.381 1013.41 855.471 1012.6 859.381C1012.6 859.641 1012.26 862.791 1012.16 864.291L1011.91 864.291C1010.8 860.388 1010.03 856.392 1009.63 852.351C1009.38 850.131 1009.27 847.991 1009.2 845.911C1010.61 845.741 1017.04 844.911 1019.7 843.271C1022.36 841.631 1025.08 839.051 1025.4 835.911C1025.6 834.424 1025.16 832.921 1024.19 831.777C1023.22 830.633 1021.81 829.954 1020.31 829.911C1015.84 829.911 1011.23 836.521 1010 840.321C1009.93 840.531 1009.48 842.701 1009.18 844.321C1009.18 843.381 1009.18 842.411 1009.18 841.511C1009.18 838.131 1009.4 835.031 1009.62 832.291C1009.75 830.731 1009.9 829.291 1010.06 828.021C1011.35 827.131 1016.52 823.471 1018.06 820.861C1019.6 818.251 1020.89 814.641 1019.73 811.711C1019.23 810.295 1018.15 809.159 1016.76 808.587C1015.36 808.014 1013.8 808.06 1012.44 808.711C1008.44 810.771 1007.44 818.711 1008.08 822.711C1008.14 823.051 1009.64 828.281 1009.71 828.231L1009.78 828.181C1009.61 829.441 1009.44 830.791 1009.28 832.271C1009.01 835.021 1008.72 838.121 1008.64 841.511C1008.52 845.18 1008.61 848.853 1008.91 852.511C1009.21 856.597 1009.88 860.646 1010.91 864.611C1010.91 864.661 1010.91 864.701 1010.91 864.751C1010.21 863.641 1008.14 860.621 1007.91 860.401C1005.3 857.401 998.482 853.091 994.362 854.831C992.994 855.455 991.956 856.632 991.507 858.067C991.059 859.502 991.242 861.06 992.012 862.351C993.532 865.121 997.182 866.491 1000.13 866.921C1003.46 867.401 1010.46 865.371 1011.02 865.211C1012.17 869.219 1013.59 873.145 1015.27 876.961C1016.27 879.191 1017.27 881.411 1018.34 883.621C1017.7 882.691 1017.12 881.851 1017.03 881.751C1014.42 878.751 1007.59 874.431 1003.48 876.171C1002.15 876.8 1001.14 877.956 1000.7 879.36C1000.25 880.765 1000.41 882.291 1001.14 883.571C1002.66 886.341 1006.3 887.711 1009.25 888.141C1012.2 888.571 1018.25 886.961 1019.84 886.511L1021.09 889.051C1023.09 893.051 1025.16 897.111 1027.09 901.111C1027.75 902.531 1028.35 903.941 1028.96 905.351C1028.39 904.521 1027.9 903.831 1027.82 903.731C1025.21 900.731 1018.38 896.411 1014.27 898.161C1012.9 898.785 1011.87 899.962 1011.42 901.397C1010.97 902.832 1011.15 904.39 1011.92 905.681C1013.44 908.441 1017.08 909.811 1020.03 910.241C1022.98 910.671 1028.45 909.241 1030.34 908.701C1030.91 910.161 1031.5 911.631 1031.99 913.081C1032.31 914.081 1032.68 915.011 1032.94 916.021C1033.2 917.031 1033.49 918.021 1033.77 919.021C1034.23 920.931 1034.71 922.901 1035.11 924.781C1035.4 926.081 1035.65 927.321 1035.91 928.581C1035.26 927.171 1033.91 924.431 1033.81 924.211C1031.68 920.831 1025.59 915.551 1021.25 916.651C1019.81 917.063 1018.6 918.07 1017.95 919.421C1017.29 920.772 1017.24 922.339 1017.8 923.731C1018.88 926.731 1022.27 928.601 1025.12 929.471C1028.27 930.471 1035.22 929.551 1036.12 929.471C1036.53 931.551 1036.92 933.581 1037.25 935.471C1037.83 938.731 1038.25 941.731 1038.67 944.401L1041.56 944.401C1041.1 941.601 1040.56 938.401 1039.86 934.991C1039.44 932.881 1038.96 930.631 1038.44 928.321C1040.53 927.489 1042.57 926.531 1044.55 925.451C1046.84 927.931 1052.71 930.831 1053.47 931.201C1052.67 933.201 1051.87 935.061 1051.09 936.841C1049.89 939.611 1048.74 942.131 1047.67 944.401L1050.76 944.401C1051.65 942.401 1052.58 940.221 1053.53 937.871C1054.35 935.871 1055.19 933.741 1056.03 931.531C1056.87 931.711 1063.75 933.111 1066.96 932.381C1069.87 931.731 1073.39 930.081 1074.69 927.201C1075.36 925.856 1075.42 924.289 1074.87 922.893C1074.31 921.498 1073.18 920.406 1071.77 919.891C1067.53 918.471 1061.06 923.281 1058.69 926.491C1058.55 926.681 1057.26 928.911 1056.47 930.331C1056.81 929.421 1057.15 928.551 1057.47 927.611C1058.15 925.771 1058.77 923.911 1059.47 921.911C1059.76 920.911 1060.06 919.911 1060.35 918.911C1060.64 917.911 1060.88 916.851 1061.15 915.811C1061.73 913.391 1062.15 910.911 1062.61 908.401C1064.22 908.991 1069.99 911.001 1072.98 910.791C1075.97 910.581 1079.69 909.491 1081.41 906.841C1082.28 905.612 1082.58 904.072 1082.24 902.608C1081.9 901.144 1080.95 899.894 1079.63 899.171C1075.63 897.121 1068.53 900.901 1065.7 903.711C1065.53 903.891 1063.7 906.141 1062.76 907.391C1062.99 905.881 1063.24 904.391 1063.43 902.841C1063.98 898.411 1064.43 893.901 1064.84 889.411C1064.97 888.031 1065.12 886.661 1065.26 885.291C1065.84 885.511 1072.64 888.041 1075.99 887.801C1078.99 887.601 1082.7 886.501 1084.42 883.861C1085.29 882.631 1085.59 881.089 1085.25 879.623C1084.91 878.158 1083.96 876.906 1082.64 876.181C1078.64 874.131 1071.54 877.911 1068.71 880.731C1068.5 880.941 1065.91 884.181 1065.29 885.041C1065.61 882.041 1065.95 879.041 1066.42 876.041C1067.02 872.053 1067.88 868.109 1068.99 864.231C1069.26 864.331 1076.35 867.011 1079.78 866.771C1082.78 866.561 1086.49 865.461 1088.21 862.771C1089.08 861.542 1089.38 860.002 1089.04 858.538C1088.7 857.074 1087.75 855.824 1086.43 855.101C1082.43 853.051 1075.33 856.821 1072.5 859.641C1072.32 859.831 1070.34 862.291 1069.43 863.491L1069.2 863.371C1070.43 859.503 1072 855.752 1073.89 852.161C1074.89 850.161 1075.99 848.321 1077.09 846.551C1078.36 847.181 1084.19 850.021 1087.3 850.141C1090.41 850.261 1094.11 849.581 1096.11 847.141C1097.1 846.014 1097.57 844.518 1097.4 843.026C1097.22 841.534 1096.42 840.187 1095.19 839.321C1091.46 836.851 1083.97 839.821 1080.84 842.321C1080.67 842.461 1079.1 844.021 1077.97 845.181C1078.48 844.391 1078.97 843.561 1079.48 842.811C1081.35 839.991 1083.24 837.531 1084.93 835.361C1085.93 834.141 1086.8 833.051 1087.66 832.041C1089.23 832.041 1095.55 831.821 1098.32 830.521C1101.09 829.221 1104.11 826.881 1104.76 823.801C1105.11 822.335 1104.81 820.791 1103.94 819.558C1103.08 818.324 1101.73 817.518 1100.23 817.341Z" fill="#c2c2c2" fill-rule="nonzero" opacity="1" stroke="none" vectornator:layerName="path"/>
<path d="M1153.83 800.641L1040.4 800.641C1034.63 800.641 1029.95 805.32 1029.95 811.091L1029.95 1009.17L1153.83 800.641Z" fill="#808080" fill-rule="nonzero" opacity="1" stroke="#263238" stroke-linecap="butt" stroke-linejoin="miter" stroke-width="1" vectornator:layerName="path"/>
<path d="M1301.94 800.641L1415.37 800.641C1421.14 800.641 1425.82 805.32 1425.82 811.091L1425.82 1009.78L1301.94 800.641Z" fill="#808080" fill-rule="nonzero" opacity="1" stroke="#263238" stroke-linecap="butt" stroke-linejoin="miter" stroke-width="1" vectornator:layerName="path"/>
<path d="M1153.83 800.641L1029.95 1009.2" fill="none" opacity="1" stroke="#263238" stroke-linecap="round" stroke-linejoin="round" stroke-width="1" vectornator:layerName="line"/>
<path d="M1301.94 800.641L1425.82 1009.78" fill="none" opacity="1" stroke="#263238" stroke-linecap="round" stroke-linejoin="round" stroke-width="1" vectornator:layerName="line"/>
<path d="M1046.01 982.481L1046.01 820.711L1141.45 820.711" fill="none" opacity="1" stroke="#263238" stroke-linecap="round" stroke-linejoin="round" stroke-width="1" vectornator:layerName="polyline"/>
<path d="M1314.05 820.711L1409.76 820.711L1409.76 983.301" fill="none" opacity="1" stroke="#263238" stroke-linecap="round" stroke-linejoin="round" stroke-width="1" vectornator:layerName="polyline"/>
<path d="M1301.94 800.641L1268.37 743.971L1187.61 743.971L1153.83 800.641" fill="#ffffff" fill-opacity="0.3" fill-rule="nonzero" opacity="1" stroke="#263238" stroke-linecap="butt" stroke-linejoin="miter" stroke-width="1" vectornator:layerName="polyline"/>
<path d="M1259.36 859.291C1261.82 856.838 1262.9 853.321 1262.23 849.911L1255.68 856.451C1254.9 857.214 1253.66 857.214 1252.88 856.451L1247.44 851.011C1246.68 850.234 1246.68 848.989 1247.44 848.211L1253.98 841.661C1250.26 840.946 1246.44 842.305 1244 845.212C1241.56 848.12 1240.89 852.119 1242.25 855.661L1225.35 872.171L1223.72 870.541L1226.38 867.881C1226.64 867.598 1226.64 867.164 1226.38 866.881L1224.32 864.831C1224.04 864.562 1223.6 864.562 1223.32 864.831L1222.32 865.831L1220.09 863.611L1220.95 862.751C1221.31 862.366 1221.31 861.766 1220.95 861.381L1202.51 842.941C1200.66 841.094 1197.67 841.094 1195.82 842.941L1193.94 844.821C1192.09 846.669 1192.09 849.664 1193.94 851.511L1212.38 869.951C1212.77 870.313 1213.37 870.313 1213.75 869.951L1214.6 869.091L1216.83 871.321L1215.83 872.321C1215.56 872.6 1215.56 873.042 1215.83 873.321L1217.83 875.381C1218.11 875.641 1218.55 875.641 1218.83 875.381L1221.49 872.721L1223.09 874.321L1209.09 887.991C1205.55 886.628 1201.55 887.294 1198.64 889.732C1195.73 892.17 1194.37 895.995 1195.09 899.721L1201.64 893.181C1202.42 892.419 1203.66 892.419 1204.44 893.181L1209.88 898.621C1210.64 899.399 1210.64 900.644 1209.88 901.421L1203.34 907.971C1207.07 908.687 1210.89 907.328 1213.32 904.42C1215.76 901.513 1216.43 897.514 1215.07 893.971L1229.07 880.311L1248.17 899.411C1247.61 900.856 1247.96 902.494 1249.05 903.591L1253.66 908.201L1259.19 902.671L1254.58 898.061C1253.48 896.968 1251.85 896.623 1250.4 897.181L1231.3 878.171L1248.19 861.681C1252.06 863.17 1256.44 862.233 1259.36 859.291Z" fill="#263238" fill-rule="nonzero" opacity="1" stroke="#263238" stroke-linecap="round" stroke-linejoin="round" stroke-width="1" vectornator:layerName="path"/>
<path d="M1144.56 951.172L1304.08 951.172L1304.08 951.172L1304.08 960.682L1304.08 960.682L1144.56 960.682L1144.56 960.682L1144.56 951.172L1144.56 951.172Z" fill="#ffc100" fill-rule="nonzero" opacity="1" stroke="none" vectornator:layerName="rect"/>
<path d="M1206.95 951.172L1196.33 951.172L1190.88 960.672L1201.5 960.672L1206.95 951.172Z" fill="#263238" fill-rule="nonzero" opacity="1" stroke="none" vectornator:layerName="polygon"/>
<path d="M1304.08 960.672L1304.08 952.092L1299.16 960.672L1304.08 960.672Z" fill="#263238" fill-rule="nonzero" opacity="1" stroke="none" vectornator:layerName="polygon"/>
<path d="M1228.6 951.172L1217.98 951.172L1212.54 960.672L1223.16 960.672L1228.6 951.172Z" fill="#263238" fill-rule="nonzero" opacity="1" stroke="none" vectornator:layerName="polygon"/>
<path d="M1185.29 951.172L1174.67 951.172L1169.22 960.672L1179.85 960.672L1185.29 951.172Z" fill="#263238" fill-rule="nonzero" opacity="1" stroke="none" vectornator:layerName="polygon"/>
<path d="M1147.57 960.672L1158.19 960.672L1163.64 951.172L1153.01 951.172L1147.57 960.672Z" fill="#263238" fill-rule="nonzero" opacity="1" stroke="none" vectornator:layerName="polygon"/>
<path d="M1293.57 951.172L1282.95 951.172L1277.51 960.672L1288.13 960.672L1293.57 951.172Z" fill="#263238" fill-rule="nonzero" opacity="1" stroke="none" vectornator:layerName="polygon"/>
<path d="M1250.26 951.172L1239.64 951.172L1234.19 960.672L1244.82 960.672L1250.26 951.172Z" fill="#263238" fill-rule="nonzero" opacity="1" stroke="none" vectornator:layerName="polygon"/>
<path d="M1271.92 951.172L1261.29 951.172L1255.85 960.672L1266.47 960.672L1271.92 951.172Z" fill="#263238" fill-rule="nonzero" opacity="1" stroke="none" vectornator:layerName="polygon"/>
</g>
</g>
</svg>
